<mxfile host="app.diagrams.net" modified="2024-05-16T11:09:10.806Z" agent="Mozilla/5.0 (Windows NT 10.0; Win64; x64) AppleWebKit/537.36 (KHTML, like Gecko) Chrome/124.0.0.0 Safari/537.36" version="24.4.2" etag="5qNGjpRObai_a3uX6vDf" type="github">
  <diagram name="페이지-1" id="r9_fOz_KzgpK_YsuyZlz">
    <mxGraphModel>
      <root>
        <mxCell id="0" />
        <mxCell id="1" parent="0" />
      </root>
    </mxGraphModel>
  </diagram>
</mxfile>
